<?xml version="1.0" encoding="UTF-8"?>
<!-- Created with Inkscape (http://www.inkscape.org/) -->
<svg width="31.75mm" height="31.75mm" version="1.1" viewBox="0 0 31.75 31.75" xmlns="http://www.w3.org/2000/svg">
 <g transform="translate(-150.81 -60.854)">
  <rect x="189.18" y="60.854" width="31.75" height="31.75" fill-opacity=".18648"/>
  <path d="m127 150.81c0.5208-0.22379 0.97725-0.59514 1.3023-1.0595 0.32507-0.46439 0.51776-1.0204 0.54977-1.5863 0.0257-0.45449-0.0532-0.91975-0.26458-1.3229-0.18943-0.36131-0.47662-0.66065-0.76758-0.94659-0.29097-0.28594-0.59229-0.56695-0.81992-0.90549-0.28195-0.41932-0.44064-0.9168-0.47814-1.4207s0.044-1.0137 0.21355-1.4897c0.25783-0.72401 0.72166-1.3734 1.3229-1.8521" fill="none" stroke="#000" stroke-linecap="round" stroke-width="2"/>
  <path transform="scale(.26458)" d="m486.48 423.11-10.752 3.5176 3.7969 1.9258c-0.85934 1.3012-1.563 2.7062-2.0898 4.1856-0.79857 2.242-1.1976 4.677-1.0117 7.1738 0.18671 2.5079 0.96392 5.0087 2.4356 7.1973 1.1817 1.7575 2.5356 2.9757 3.5879 4.0098 1.0459 1.0279 1.8141 1.908 2.1992 2.6426 0.42323 0.80727 0.6405 1.8881 0.57617 3.0254-0.0805 1.4246-0.58407 2.878-1.4023 4.0469-0.81819 1.1689-2.0035 2.1378-3.3144 2.7012l2.9824 6.9394c2.6258-1.1283 4.8864-2.9672 6.5254-5.3086 1.639-2.3413 2.5925-5.0958 2.7539-7.9492 0.13002-2.2982-0.25125-4.7284-1.4258-6.9688-1.0468-1.9965-2.4403-3.384-3.5938-4.5176-1.1472-1.1274-2.0743-2.0344-2.6133-2.8359-0.6596-0.98101-1.077-2.2418-1.1738-3.543-0.0975-1.3122 0.11464-2.7258 0.59766-4.082 0.41428-1.1633 1.0255-2.2704 1.7871-3.2598l3.6543 1.8516z" color="#000000" stroke-width="3.7795" style="-inkscape-stroke:none"/>
  <rect x="25.499" y="105.97" width="31.75" height="31.75" fill-opacity=".18648"/>
  <rect x="58.208" y="66.146" width="31.75" height="31.75" opacity="0" stroke-width="2"/>
  <g>
   <path d="m58.208 97.896v-1.0583h31.75v1.0583z"/>
   <path d="m59.267 97.896h-1.0583v-31.75h1.0583z"/>
   <path d="m89.958 97.896h-1.0583v-31.75h1.0583z"/>
   <path d="m58.208 67.204v-1.0583h31.75v1.0583z"/>
   <path d="m73.554 96.837h1.0583v-29.633h-1.0583z" stroke="#000" stroke-width=".52917"/>
   <path d="m88.9 82.55v-1.0583h-29.633v1.0583z" stroke="#000" stroke-width=".52917"/>
   <path d="m63.235 82.55h1.0583v-16.14h-1.0583z"/>
   <path d="m68.527 82.55h1.0583v-16.14h-1.0583z"/>
   <path d="m78.581 97.631h1.0583v-16.14h-1.0583z"/>
   <path d="m83.873 97.631h1.0583v-16.14h-1.0583z"/>
   <path d="m74.348 92.869v-1.0583h-16.14v1.0583z"/>
   <path d="m74.348 87.577v-1.0583h-16.14v1.0583z"/>
   <path d="m89.694 77.523v-1.0583h-16.14v1.0583z"/>
   <path d="m89.694 72.231v-1.0583h-16.14v1.0583z"/>
  </g>
  <rect x="134.94" y="63.5" width="31.75" height="31.75" fill-opacity="0"/>
  <g>
   <g>
    <path d="m59.796 97.896h-1.0583v-31.75h1.0583z"/>
    <path d="m89.429 97.896h-1.0583v-31.75h1.0583z"/>
    <path d="m58.208 97.367v-1.0583h31.75v1.0583z"/>
    <path d="m58.208 67.733v-1.0583h31.75v1.0583z"/>
   </g>
   <rect x="156.1" y="4.6326e-8" width="31.75" height="31.75" fill-opacity=".18648"/>
  </g>
  <rect x="175.95" y="-17.198" width="32.773" height="6.5692" opacity="0" stroke-width=".26458"/>
  <rect x="116.42" y="26.458" width="31.75" height="31.75" fill-opacity="0"/>
  <g transform="translate(0 5.2917)" stroke="#000" stroke-linecap="round" stroke-linejoin="round">
   <g fill="none" stroke-width=".79375">
    <circle cx="132.29" cy="37.042" r="3.9688"/>
    <circle cx="130.44" cy="36.248" r=".52917"/>
    <circle cx="134.14" cy="36.248" r=".52917"/>
   </g>
   <circle cx="132.29" cy="38.629" r=".26458" stroke-width=".79375"/>
   <rect x="124.35" y="29.104" width="15.875" height="15.875" fill="none" stroke-width="1.5875"/>
  </g>
  <rect x="14.96" y="142.13" width="31.75" height="31.75" fill-opacity="0"/>
  <rect x="13.2" y="105.97" width="31.75" height="31.75" fill-opacity="0"/>
  <g transform="translate(-44.945 2.662)">
   <g transform="matrix(.69539 .69539 -.70139 .70139 116.17 -14.857)" stroke-linecap="square">
    <path d="m34.44 165.72v0.75l1e-6 6.8359h2.0293l-1e-6 -7.5859z" color="#000000" stroke-width="1.2" style="-inkscape-stroke:none"/>
    <path d="m33.84 165.12v8.7871h3.2285v-8.7871zm1.1992 1.2012h0.83008v6.3848h-0.83008v-6.2344z" color="#000000" style="-inkscape-stroke:none"/>
   </g>
   <g transform="matrix(.98326 1.6971e-7 1.6971e-7 .98326 117.74 -10.745)" stroke-linecap="round">
    <path d="m-99.843 144.95a0.73636 0.73636 0 0 1-0.73637 0.73636 0.73636 0.73636 0 0 1-0.73636-0.73636 0.73636 0.73636 0 0 1 0.73636-0.73636 0.73636 0.73636 0 0 1 0.73637 0.73636z" color="#000000" stroke-width="1.7673" style="-inkscape-stroke:none"/>
    <path d="m-100.58 143.33c-0.88423 0-1.6191 0.73491-1.6191 1.6191 0 0.88424 0.73491 1.6211 1.6191 1.6211 0.88424 0 1.6211-0.73686 1.6211-1.6211 0-0.88423-0.73686-1.6191-1.6211-1.6191zm0 1.4727c0.0709 0 0.14844 0.0756 0.14844 0.14648 0 0.0709-0.0776 0.14844-0.14844 0.14844-0.0709 0-0.14648-0.0776-0.14648-0.14844 0-0.0709 0.0756-0.14648 0.14648-0.14648z" color="#000000" style="-inkscape-stroke:none"/>
   </g>
   <g stroke-linecap="square" stroke-linejoin="round">
    <path d="m29.114 110.76-2.4929 2.4934 2.203 2.203 6.6197 6.6208 2.203 2.203 2.4934-2.4939-8.8232-8.8232z" color="#000000" stroke-width="1.5" style="-inkscape-stroke:none"/>
    <path d="m28.584 110.23-2.4922 2.4922a0.75008 0.75008 0 0 0 0 1.0606l2.2031 2.2031 6.6191 6.6211 2.2031 2.2031a0.75008 0.75008 0 0 0 1.0605 0l2.4922-2.4941a0.75008 0.75008 0 0 0 0-1.0605l-2.2012-2.2031-6.6211-6.6191-2.2031-2.2031a0.75008 0.75008 0 0 0-1.0605 0zm0.5293 1.5918 1.6738 1.6719 8.293 8.293-1.4316 1.4336-1.6738-1.6738-6.6191-6.6211-1.6738-1.6719z" color="#000000" style="-inkscape-stroke:none"/>
   </g>
   <path d="m39.061 122.42-1.1229 1.1234 0.75396 0.75395 1.1229-1.1229zm-11.932 0.3297a0.79383 0.79383 0 0 0-0.60358 0.23099l-2.0588 2.0588 1.1229 1.1229 1.7348-1.7343 10.291 2.758a0.79383 0.79383 0 0 0 0.7674-0.20723l2.0567-2.0567a0.79383 0.79383 0 0 0 0-1.1229l-0.56069-0.56069-2.2949 2.295-10.291-2.758a0.79383 0.79383 0 0 0-0.16381-0.0258z" color="#000000" stroke-linejoin="round" style="-inkscape-stroke:none"/>
  </g>
  <g transform="translate(5.1983 -36.31)">
   <g transform="translate(50.804 -8.669)" stroke-linecap="round">
    <g fill-opacity="0" stroke="#000" stroke-width="1.5875">
     <path d="m143.49 69.95a1.5 1.5 0 0 0-1.5 1.5v15.875a1.5 1.5 0 0 0 1.5 1.5 1.5 1.5 0 0 0 1.5-1.5v-15.875a1.5 1.5 0 0 0-1.5-1.5z" color="#000000"/>
     <path d="m148.79 69.942a1.5 1.5 0 0 0-1.5 1.5v15.875a1.5 1.5 0 0 0 1.5 1.5 1.5 1.5 0 0 0 1.5-1.5v-15.875a1.5 1.5 0 0 0-1.5-1.5z" color="#000000"/>
     <path d="m154.16 69.938a1.5 1.5 0 0 0-1.5 1.5v15.875a1.5 1.5 0 0 0 1.5 1.5 1.5 1.5 0 0 0 1.5-1.5v-15.875a1.5 1.5 0 0 0-1.5-1.5z" color="#000000"/>
     <path d="m159.46 69.933a1.5 1.5 0 0 0-1.5 1.5v15.875a1.5 1.5 0 0 0 1.5 1.5 1.5 1.5 0 0 0 1.5-1.5v-15.875a1.5 1.5 0 0 0-1.5-1.5z" color="#000000"/>
    </g>
    <path d="m160.34 72.76h2.6458v1.0583h-2.6458z" stroke-width="2.6833"/>
    <path d="m139.83 71.966h0.52917v2.4781h-0.52917z" stroke-width="2.3706"/>
    <path d="m160.34 84.931h2.6458v1.0583h-2.6458z" stroke-width="2.6833"/>
    <path d="m139.83 72.676h2.6458v1.0583h-2.6458z" stroke-width="2.6833"/>
   </g>
   <g stroke-width=".445">
    <path d="m207.77 55.295-1.2659 0.41416 0.44705 0.22674c-0.10118 0.15321-0.18403 0.31863-0.24606 0.4928-0.094 0.26397-0.141 0.55067-0.11912 0.84464 0.022 0.29528 0.1135 0.58972 0.28676 0.8474 0.13914 0.20693 0.29854 0.35036 0.42243 0.47211 0.12316 0.12102 0.2136 0.22465 0.25894 0.31114 0.0498 0.09505 0.0754 0.22231 0.0678 0.35621-9e-3 0.16773-0.0688 0.33885-0.16512 0.47648-0.0963 0.13762-0.23588 0.25171-0.39023 0.31804l0.35115 0.81705c0.30916-0.13285 0.57532-0.34936 0.76829-0.62503 0.19298-0.27567 0.30525-0.59997 0.32425-0.93594 0.0153-0.27059-0.0296-0.55672-0.16787-0.8205-0.12324-0.23507-0.28732-0.39843-0.42313-0.5319-0.13506-0.13273-0.24422-0.23953-0.30769-0.3339-0.0777-0.1155-0.1268-0.26395-0.13821-0.41715-0.0115-0.1545 0.0134-0.32093 0.0704-0.48062 0.0488-0.13697 0.12074-0.26731 0.21041-0.3838l0.43026 0.218z" color="#000000" style="-inkscape-stroke:none"/>
    <path d="m202.45 55.295-1.2659 0.41416 0.44705 0.22674c-0.10118 0.15321-0.18403 0.31863-0.24606 0.4928-0.094 0.26397-0.141 0.55067-0.11912 0.84464 0.022 0.29528 0.1135 0.58972 0.28676 0.8474 0.13914 0.20693 0.29854 0.35036 0.42243 0.47211 0.12316 0.12102 0.2136 0.22465 0.25894 0.31114 0.0498 0.09505 0.0754 0.22231 0.0678 0.35621-9e-3 0.16773-0.0688 0.33885-0.16512 0.47648-0.0963 0.13762-0.23588 0.25171-0.39023 0.31804l0.35115 0.81705c0.30916-0.13285 0.57532-0.34936 0.76829-0.62503 0.19298-0.27567 0.30525-0.59997 0.32425-0.93594 0.0153-0.27059-0.0296-0.55672-0.16787-0.8205-0.12324-0.23507-0.28732-0.39843-0.42313-0.5319-0.13506-0.13273-0.24422-0.23953-0.30769-0.3339-0.0777-0.1155-0.1268-0.26395-0.13821-0.41715-0.0115-0.1545 0.0134-0.32093 0.0704-0.48062 0.0488-0.13697 0.12074-0.26731 0.21041-0.3838l0.43026 0.218z" color="#000000" style="-inkscape-stroke:none"/>
    <path d="m197.15 55.295-1.2659 0.41416 0.44705 0.22674c-0.10118 0.15321-0.18403 0.31863-0.24606 0.4928-0.094 0.26397-0.141 0.55067-0.11912 0.84464 0.022 0.29528 0.1135 0.58972 0.28676 0.8474 0.13914 0.20693 0.29854 0.35036 0.42243 0.47211 0.12316 0.12102 0.2136 0.22465 0.25894 0.31114 0.0498 0.09505 0.0754 0.22231 0.0678 0.35621-9e-3 0.16773-0.0688 0.33885-0.16512 0.47648-0.0963 0.13762-0.23588 0.25171-0.39023 0.31804l0.35115 0.81705c0.30916-0.13285 0.57532-0.34936 0.76829-0.62503 0.19298-0.27567 0.30525-0.59997 0.32425-0.93594 0.0153-0.27059-0.0296-0.55672-0.16787-0.8205-0.12324-0.23507-0.28732-0.39843-0.42313-0.5319-0.13506-0.13273-0.24422-0.23953-0.30769-0.3339-0.0777-0.1155-0.1268-0.26395-0.13821-0.41715-0.0115-0.1545 0.0134-0.32093 0.0704-0.48062 0.0488-0.13697 0.12074-0.26731 0.21041-0.3838l0.43026 0.218z" color="#000000" style="-inkscape-stroke:none"/>
   </g>
  </g>
  <path d="m-12.965 110.07h11.377v10.583l-1.9361 1.9361-11.028-10.932z" fill="#666"/>
  <path d="m156.1 73.629-1.3229 1.3229v1.3229l11.906-11.906 11.906 11.906v-1.3229l-11.906-11.906" fill="none"/>
  <g transform="matrix(.57798 0 0 .57798 82.87 39.355)" stroke="#000" stroke-linecap="round" stroke-linejoin="round" stroke-width="1.0583">
   <path d="m144.52 71.763 3.3866-12.639-8.9958 12.578z"/>
   <path d="m145.52 67.469-3.3866 12.639 8.9958-12.578z"/>
  </g>
  <path d="m174.62 90.784h2.6458v-17.198l-10.583-10.583-10.583 10.583v17.198z" fill="none" stroke="#000" stroke-width="1.5875"/>
 </g>
</svg>
